<?xml version="1.0" encoding="UTF-8"?><svg xmlns="http://www.w3.org/2000/svg" viewBox="0 0 878.51 671.96"><defs><style>.cls-1{font-family:CascadiaCode-Roman, 'Cascadia Code';font-size:58.5px;font-variation-settings:'wght' 400;}.cls-1,.cls-2{fill:#00c0f3;}.cls-3{fill:#fdb912;}</style></defs><g id="Layer_5"><text class="cls-1" transform="translate(83.24 147.61) rotate(-90) scale(1.14 1)"><tspan x="0" y="0">UCR</tspan></text><path id="P" class="cls-2" d="M405.85,80.42c-11.28-43.86-46.85-48.24-95.43-48.24h-46.85v613.31l51.18-1.36v-169.87s69.18,11.1,88.49-31.73c13.88-30.8,11-329.46,2.6-362.11ZM356.21,370.24c-.48,30.17.33,78.04-19.88,78.04h-21.75V62.36h15.35c26.6,0,26.36,25.06,26.36,57.89s.6,206.53-.09,249.99Z"/><path class="cls-2" d="M586.98,100.53c0,26.94,0,109.75,0,202.88h54.25l1.78-211.33c0-31.92,27.63-31.88,27.63-.55s.2,211.88.2,211.88h-11.71s66.16,0,66.16,0c.06-91.89.1-173.2.1-199.5,0-96.07-138.41-94.09-138.41-3.38Z"/></g><g id="Layer_2"><path class="cls-3" d="M703.21,324.39c0,100.12-80.39,181.28-179.55,181.28s-179.55-81.16-179.55-181.28,80.39-181.28,179.55-181.28,179.55,81.16,179.55,181.28"/></g><g id="Layer_4"><rect id="I" class="cls-2" x="40.95" y="152.83" width="44.05" height="491.3"/><polyline id="M" class="cls-2" points="197.87 32.17 249.13 32.17 249.13 644.13 206.87 644.13 207.12 539.58 188.09 644.13 158.31 644.13 139.65 539.78 139.65 644.13 96.67 645.49 96 32.17 146.36 32.17 173.87 338.15"/><path id="A" class="cls-2" d="M430.15,100.53c0,72.04,0,543.63,0,543.63h56.3v-239l23.59-.35v240.67l58.28-1.36s-3.09-470.83-3.09-541.75c0-96.07-135.09-92.57-135.09-1.85ZM510.38,381.07h-23.84V94.96c0-31.92,23.84-31.32,23.84,0v286.11Z"/><path class="cls-2" d="M725.39,378.35h-56.39v208.45c0,31.92-27.73,30.28-27.73-1.04s.26-201.73.26-207.4c0-.05,0,.05,0,0h-54.45c-.06,91.89-.1,173.2-.1,199.5,0,96.07,138.41,94.09,138.41,3.38,0-26.94,0-109.75,0-202.88Z"/><polygon class="cls-2" points="587.08 378.35 586.98 146.5 641.53 146.5 641.53 378.35 587.08 378.35"/><path id="T" class="cls-2" d="M731.5,128.05V44.94h117.8v83.11h-33.27l-1.64,516.08h-50.72V127.49s-32.18.56-32.18.56Z"/></g></svg>